# xmcd
#
# Track frame offsets:
#	150
#	11809
#	23400
#	36956
#	49197
#	61404
#	72518
#	83955
#	94784
#	106904
#	119186
#	130839
#	142322
#	155021
#	168427
#	181857
#	194186
#	206741
#	218754
#	231014
#
# Disc length: 3246 seconds
#
# Revision: 0
# Processed by: cddbd v1.5.2PL0 Copyright (c) Steve Scherf et al.
# Submitted via: EasyCDDAExtractor 9.1.3.1
#
DISCID=2f0cac14
DTITLE=Ray Price - The Essential Ray Price [CD1]
DYEAR=2007
DGENRE=Country
TTITLE0=Jealous Lies
TTITLE1=If You're Ever Lonely Darling
TTITLE2=Weary Blues (From Waiting)
TTITLE3=Talk To Your Heart
TTITLE4=Release Me
TTITLE5=I'll Be There (If You Ever Want Me)
TTITLE6=Crazy Arms
TTITLE7=You Done Me Wrong
TTITLE8=Wasted Words
TTITLE9=I've Got A New Heartache
TTITLE10=My Shoes Keep Walking Back To You
TTITLE11=Curtain In The Window
TTITLE12=Invitation To The Blues
TTITLE13=City Lights
TTITLE14=Heartaches By The Number
TTITLE15=The Same Ole Me
TTITLE16=One More Time
TTITLE17=I wish I Could Fall In Love Today
TTITLE18=Heart Over Mind
TTITLE19=Soft Rain
EXTD=
EXTT0=
EXTT1=
EXTT2=
EXTT3=
EXTT4=
EXTT5=
EXTT6=
EXTT7=
EXTT8=
EXTT9=
EXTT10=
EXTT11=
EXTT12=
EXTT13=
EXTT14=
EXTT15=
EXTT16=
EXTT17=
EXTT18=
EXTT19=
PLAYORDER=
